<?xml version="1.0" encoding="iso-8859-1"?>
<!-- Generator: Adobe Illustrator 19.0.0, SVG Export Plug-In . SVG Version: 6.00 Build 0)  -->
<svg version="1.1" id="Capa_1" xmlns="http://www.w3.org/2000/svg" xmlns:xlink="http://www.w3.org/1999/xlink" x="0px" y="0px"
	 viewBox="0 0 512 512" style="enable-background:new 0 0 512 512;" xml:space="preserve">
<g>
	<g>
		<path d="M135,377.242c-57.897,0-105,47.103-105,105V512h210v-29.758C240,424.345,192.897,377.242,135,377.242z M90,497.242H60v-30
			h30V497.242z M150,497.242h-30v-30h30V497.242z M210,497.242h-30v-30h30V497.242z"/>
	</g>
</g>
<g>
	<g>
		<path d="M225,239.422c-8.271,0-15,6.729-15,15s6.729,15,15,15s15-6.729,15-15S233.271,239.422,225,239.422z"/>
	</g>
</g>
<g>
	<g>
		<path d="M420,347.242V292c0-56.729-28.779-106.859-72.5-136.567v-49.209h30v-15c0-47.642-33.293-79.578-34.71-80.914L332.5,0
			l-10.29,10.31c-1.417,1.336-34.71,33.272-34.71,80.914v15h30v33.082C298.213,131.382,277.112,127,255.003,127
			c-9.339,0-18.53,0.788-27.503,2.298v-23.074h30v-15c0-47.642-33.293-79.578-34.71-80.914L212.5,0l-10.29,10.31
			c-1.417,1.336-34.71,33.272-34.71,80.914v15h30v31.094c-47.312,17.575-85.029,56.329-100.301,106.335
			c-19.32,10.307-31.836,30.702-31.836,52.982v9.683C24.815,330.692,0,374.206,0,422v60.242c0-74.439,60.561-135,135-135
			s135,60.561,135,135V512h150v-74.758H300v-30h120v-30H300v-30H420z M225,299.422c-24.813,0-45-20.187-45-45s20.187-45,45-45
			s45,20.187,45,45S249.813,299.422,225,299.422z"/>
	</g>
</g>
<g>
	<g>
		<rect x="450" y="347.24" width="62" height="30"/>
	</g>
</g>
<g>
	<g>
		<rect x="450" y="407.24" width="62" height="30"/>
	</g>
</g>
<g>
</g>
<g>
</g>
<g>
</g>
<g>
</g>
<g>
</g>
<g>
</g>
<g>
</g>
<g>
</g>
<g>
</g>
<g>
</g>
<g>
</g>
<g>
</g>
<g>
</g>
<g>
</g>
<g>
</g>
</svg>
